<?xml version="1.0" encoding="UTF-8"?>
<!-- Created with Inkscape (http://www.inkscape.org/) -->
<svg width="122.01mm" height="138.24mm" version="1.1" viewBox="0 0 122.01 138.24" xmlns="http://www.w3.org/2000/svg">
 <g transform="translate(26.616 -58.875)" fill="#fff" stroke="#000">
  <g stroke-width=".05">
   <path d="m9.6457 58.903c-3.1375-0.0996-5.8842 2.1804-6.3076 5.3614l-0.38447 2.8887 59.331-1.2754-52.006-6.9226c-0.21206-0.0282-0.42336-0.0456-0.63254-0.0522zm70.3 9.326c0.80251 1.064 1.2946 2.3789 1.3255 3.8189l0.15605 7.2512c2.9082 0.7707 4.8369 3.5808 4.4178 6.6482l-3.6938 27.037 1.1555 53.752 12.011-90.228c0.45167-3.3931-1.9161-6.488-5.3092-6.9396zm-89.562 93.351-0.98859 7.4259c-0.22839 1.7157 0.26601 3.354 1.2475 4.6142zm90.824 20.472c-1.1104 0.94213-2.5401 1.5237-4.116 1.5575l-21.365 0.45939 18.708 2.4903c3.1175 0.41498 5.9774-1.5536 6.7727-4.5072z" stop-color="#000000"/>
   <path d="m74.555 65.614-12.735 0.2739c0.91847 0.9429 1.6102 2.132 1.9466 3.5083l1.6816 6.8787 1.1565-0.0233c3.3678-0.0678 6.1142 2.5891 6.1583 5.9572l0.33123 25.339 9.8025 40.094-1.6252-75.593c-0.0783-3.6425-3.0739-6.512-6.7164-6.4337zm-30.046 0.64596-49.574 1.0656c-3.6425 0.0783-6.512 3.0738-6.4337 6.7164l0.1266 5.8803zm-54.164 93.541 0.41032 19.087c0.0718 3.3371 2.5942 6.018 5.8172 6.3851zm93.08 18.388c-0.27271 0.1006-0.55195 0.19074-0.8413 0.26149l-22.608 5.5273 17.116-0.36792c3.1996-0.0688 5.8013-2.389 6.334-5.4209z" stop-color="#000000"/>
   <path d="m56.087 63.588c-0.50673 0.0199-1.0191 0.0902-1.5317 0.21548l-75.332 18.418c-4.1007 1.0026-6.595 5.1106-5.5924 9.2113l24.41 99.842c1.0026 4.1007 5.1106 6.5945 9.2113 5.5919l75.332-18.417c4.1007-1.0026 6.595-5.1111 5.5924-9.2118l-24.41-99.842c-0.87726-3.5881-4.1324-5.9461-7.6796-5.8079zm-4.8333 10.656c2.7068-5e-3 5.1538 1.8161 5.8451 4.5728l17.051 67.988c0.81939 3.2672-1.1466 6.5757-4.408 7.4181l-61.092 15.779c-3.2614 0.84241-6.5471-1.1097-7.3665-4.377l-17.05-67.988c-0.81939-3.2672 1.1466-6.5752 4.408-7.4176l61.092-15.78c0.50959-0.13161 1.0196-0.19503 1.5208-0.19585zm16.197 88.357c0.72919 0.0217 1.2511 0.47535 1.5203 1.3374 0.15608 0.49972 0.0457 1.3754-0.55396 1.5627-0.21656 0.0676-0.40211-0.0573-0.46974-0.27387-0.11964-0.38314-0.0287-0.79563-0.1483-1.1787-0.14568-0.46644-0.48503-0.61627-0.86817-0.49663-0.79957 0.24972-1.1047 1.7896-0.88625 2.4893 0.22368 0.7163 1.1377 0.83275 2.1089 1.1328 1.0444-1.222 2.1895-2.2378 2.759-2.5802 0.15618-0.0853 0.33012 0.0618 0.34883 0.23876-0.39365 0.67141-1.3338 1.6412-2.2366 2.6727 0.64539 0.31036 1.2042 0.8124 1.4903 1.7286 0.42138 1.3493-0.76372 3.2918-2.2629 3.76-0.96615 0.3017-1.9395-0.18042-2.2464-1.1632-0.2757-0.88286 0.27829-2.153 1.1405-3.3729-0.60463-0.12218-1.2198-0.28276-1.7002-0.67643-0.2689 1.3131-1.3152 2.8793-2.5549 3.2665-0.84351 0.26341-1.7037-0.33671-2.1208-1.0247-0.3842 1.1077-0.99332 2.2349-1.5596 2.4117-0.85624 0.26739-1.4492-0.86502-1.7182-1.604-0.47599 1.979-1.5333 4.6309-2.357 4.8881-0.71628 0.22368-0.95981-0.32213-1.0971-0.93742-0.16748-0.77041-0.13536-1.6029-0.0925-2.4024 0.0292-0.37478 0.16894-1.3327 0.0972-1.6211-0.58772-3e-3 -1.1622 0.049-1.6547-0.0388 0.0555 0.67879-0.95925 1.9959-1.8841 2.4055 6e-3 1.7167-0.67665 3.3373-1.926 3.7274-1.0494 0.32774-2.1692-0.56531-2.6582-2.1311-0.41357 1.3276-1.0044 2.7267-1.4123 2.8541-0.76626 0.23932-1.1657-0.80576-1.3374-1.3555-0.39015-1.2493-0.41497-2.5582-0.80513-3.8075-0.0676-0.21656-0.15189-0.42805-0.30281-0.61857-0.69655 0.34549-0.68588 5.2966-1.5188 5.5568-0.56637 0.17687-0.80484-0.64418-0.92448-1.0273-0.32774-1.0494-0.55026-2.1137-0.87799-3.1631-0.0884-0.28319-0.24956-0.7996-0.47231-0.98597-0.5289 0.23828-0.48255 4.1915-0.47956 4.9036-5e-3 0.86093-0.23506 1.8832-1.1679 2.1745-0.56636 0.17688-0.8337-0.56282-0.96377-0.97927-0.0318-0.10179-0.0733-0.26226-0.11522-0.42477-0.4454 1.0856-1.3106 2.1501-2.3022 2.4598-0.51324 0.16028-1.0328 8e-5 -1.4552-0.30438-0.15517 2.2836-0.65788 5.0231-2.2376 5.5165-0.89953 0.28091-2.1602-0.18476-2.6805-1.8506-0.89474-2.8652-0.0723-6.3212-0.93068-9.0697-0.078-0.24985-0.15015-0.53859-0.46664-0.43976-0.91617 0.28612-2.3763 3.9232-2.5621 6.7236-0.0511 0.65585-0.01 1.0817-0.31575 1.5064-0.15307 0.21236-0.36039 0.36859-0.54364 0.42582-0.41643 0.13005-0.56687-0.35295-0.56687-0.35295-0.73872-2.3654-0.37584-6.3545-0.97928-8.2868-0.0156-0.05-0.10432-0.33311-0.25424-0.28631-0.64965 0.20289-1.9152 6.3933-1.9854 8.6274-0.0325 1.1254 0.31263 2.4071-0.16746 3.2701-0.17703 0.31126-0.41227 0.49432-0.77875 0.60875-0.29985 0.0936-0.53702 0.0947-0.67749-0.35502-0.22889-0.73294-0.30186-1.5511-0.55033-3.2835-0.29216-2.0478-0.56872-4.6308-0.63408-5.8353-0.13184-2.0613 0.0965-3.3207 0.61288-3.482 0.36648-0.11443 0.84421 0.30271 1.0263 0.88575 0.33813 1.0828 0.44561 5.5836 0.53279 7.0921 0.25643-1.8718 0.73162-8.8393 2.7306-9.4635 0.73292-0.2289 1.4554 0.38642 1.8144 1.5358 0.39016 1.2493 0.4467 3.4802 0.51832 4.6462 0.26376-1.9655 1.3957-4.8967 2.9616-5.3857 1.1827-0.36936 1.7449 0.84439 2.0102 1.6939 1.03 3.2982 0.0228 6.0445 0.8914 8.8263 0.29652 0.94948 0.81934 1.0423 1.0692 0.96428 0.77349-0.24154 1.1581-2.9897 1.3813-5.1728-0.0313-0.0689-0.0598-0.13793-0.0811-0.20619-0.47339-1.5158-0.25339-4.0896 1.5456-4.6514 0.66632-0.20807 1.1309 0.0495 1.3338 0.69919 0.34854 1.1161-0.29342 2.9251-1.4387 3.3559l0.0265 0.0832c0.13525 0.43309 0.55435 1.0155 1.0707 0.8542 0.76308-0.23831 1.4156-1.9432 1.741-2.9822-0.28908-1.7062-0.42693-3.7906 0.44649-4.0633 0.44976-0.14047 0.54758 0.23114 0.65164 0.5643 0.34854 1.1161 0.17674 2.3214 0.42013 3.452 0.11163-1.2232 0.20077-5.0351 1.5834-5.4668 0.93284-0.29133 1.4052 0.98682 1.6134 1.6531 0.21849 0.69963 0.31496 1.4192 0.5116 2.1074 0.17094-1.1504 0.53623-3.7873 1.8355-4.193 0.73295-0.22889 1.3082 0.56044 1.4955 1.1601 0.29133 0.93282 0.38253 1.9278 0.46355 2.8897 0.0405 0.48099 0.0188 1.0546 0.15917 1.5043 0.0103 0.0333 0.0481 0.0949 0.10851 0.11266 0.31488-0.15203 0.86378-1.9615 1.2273-2.9487 0.0493-0.61119 0.23111-1.183 0.54933-1.665l-0.0362-0.11628c-0.27051-0.86619 0.33875-2.1351 1.155-2.39 0.99946-0.31213 2.3453 0.8944 2.8603 2.5435 0.0676 0.21654 0.1352 0.43294 0.16949 0.6599 0.45357-0.2853 1.0774-0.91612 1.4857-1.4562-0.39068-0.19299-0.69268-0.55697-0.84904-1.247-0.21844-0.99217-0.16002-2.3266 1.0227-2.696 0.71628-0.22371 1.3794 0.61087 1.5219 1.2428 0.11128 0.532-0.0314 1.3628-0.31679 1.8542 0.92133 0.023 1.7427-0.21497 1.9652 0.84903 0.22365 1.0088-0.22971 2.1924-0.0217 3.1512 0.0259 0.0833 0.0617 0.255 0.17828 0.21859 0.43505-0.13586 1.3712-3.1617 1.7596-4.4845-0.18439-1.2796-0.09-2.6734 0.5664-2.8784 0.39978-0.12483 0.68069-0.10287 0.81594 0.33022 0.22889 0.73295-0.33647 1.7324 0.29819 3.7646 0.052 0.16658 0.18836 0.54414 0.4382 0.46611 0.33901-0.10586 0.68781-1.7516 1.0893-2.7213-0.081-1.4152 0.36666-3.0351 1.7498-3.467 0.66633-0.20809 1.1304 0.049 1.3333 0.69866 0.34853 1.1161-0.29292 2.9251-1.4382 3.3559l0.0259 0.0837c0.13525 0.4331 0.55485 1.0149 1.0712 0.85368 0.75679-0.23633 1.4041-1.9144 1.7322-2.9559-0.0435-0.0968-0.0842-0.19767-0.11885-0.30853-0.51501-1.6491 0.23051-3.418 1.9296-3.9486 0.28736-0.0897 0.5538-0.1302 0.79687-0.12298zm-9.7994 0.94464c0.32864-7e-3 0.53322 0.33377 0.62426 0.62529 0.15086 0.48308 0.0703 1.221-0.49609 1.3978-0.38312 0.11964-0.76822-0.23569-0.87747-0.5855-0.16126-0.51639-0.082-1.199 0.601-1.4123 0.0521-0.0161 0.10136-0.0243 0.1483-0.0254zm4.7914 2.2241c-0.0199-3e-3 -0.0412 8e-5 -0.0641 8e-3 -0.56636 0.17688-0.61356 2.0746-0.50641 2.5347 0.50599-0.1946 0.94975-1.7593 0.80407-2.2257-0.0319-0.10205-0.0954-0.30623-0.23357-0.31732zm-10.194 1.9508c-0.0273-6e-3 -0.0556-5e-3 -0.0847 4e-3 -0.33316 0.10403-0.14698 1.0515-0.11266 1.2785 0.0666 0.27173 0.23511 0.69461 0.5266 0.74983 0.17703-0.31123 0.1043-1.1297 0.0336-1.4733-0.0309-0.15031-0.1718-0.51829-0.36277-0.55914zm15.838 0.93689c-0.70811 0.95242-1.1889 1.8704-0.97566 2.5533 0.13526 0.43309 0.6046 0.70694 1.1043 0.55086 0.76626-0.23929 1.3526-1.4642 1.1602-2.0805-0.19249-0.61632-0.69025-0.86326-1.2888-1.0237zm-20.261 1.3668c-0.032 3e-3 -0.0633 8e-3 -0.0935 0.0169-0.29986 0.0936-0.50705 0.54197-0.41341 0.8418 0.15605 0.49975 1.2156 1.0833 2.0567 1.2594-0.0249-0.13848-0.0612-0.25534-0.10285-0.38862-0.30723-0.98385-0.96752-1.7606-1.4469-1.7296zm-0.48215 2.4603c-0.16873 0.45492-0.18582 1.3374 0.0119 1.9704 0.24972 0.79957 0.89538 1.4029 1.3451 1.2625 0.63299-0.19767 0.87969-1.2804 0.82992-2.435-0.71101-0.0522-1.5384-0.36052-2.1869-0.7979zm-14.551 2.5451c-0.0198-3e-3 -0.0407 8e-5 -0.0636 8e-3 -0.56636 0.17687-0.61357 2.0746-0.50644 2.5347 0.50599-0.1946 0.94975-1.7588 0.8041-2.2252-0.0319-0.10203-0.0959-0.30621-0.2341-0.31729z" stop-color="#000000"/>
  </g>
  <g stroke-width=".05">
   <path d="m7.9119 100.01s8.7534 16.126 9.9538 15.783c1.2869-0.63526 13.728-21.418 14.393-24.033-10.13-2.0801-19.645 3.4595-24.346 8.25z"/>
   <path d="m37.355 92.365s-9.9388 15.423-9.0612 16.311c1.1753 0.82357 25.38 1.7526 27.992 1.0794-3.0414-9.8838-12.471-15.568-18.931-17.391z"/>
   <path d="m58.25 114.09s-18.337-0.64045-18.651 0.56809c-0.10566 1.4313 11.489 22.698 13.405 24.597 6.9328-7.673 6.9879-18.683 5.2458-25.165z"/>
   <path d="m49.944 142.52s-8.9096-16.04-10.107-15.685c-1.2807 0.64772-13.519 21.55-14.159 24.171 10.15 1.9816 19.61-3.6502 24.265-8.4862z"/>
   <path d="m20.937 149.92s9.3079-15.812 8.3951-16.664c-1.2076-0.77543-25.43-0.72621-28.013 0.0519 3.4381 9.7529 13.089 15.052 19.618 16.612z"/>
   <path d="m-0.18272 128.6s18.336 0.67861 18.652-0.52928c0.10863-1.431-11.442-22.722-13.354-24.625-6.9487 7.6586-7.0267 18.669-5.2982 25.154z"/>
  </g>
 </g>
</svg>
