<?xml version="1.0" encoding="UTF-8"?>
<!-- Created with Inkscape (http://www.inkscape.org/) -->
<svg width="85.098mm" height="22.835mm" version="1.1" viewBox="0 0 85.098 22.835" xmlns="http://www.w3.org/2000/svg">
 <g transform="translate(-49.279 -55.205)">
  <g fill="currentColor" stroke-width=".26458" aria-label="Memories">
   <path d="m67.16 61.301c0 4.191-2.6416 8.636-2.6416 13.005 0 2.54 1.5494 3.7338 2.921 3.7338 3.6576 0 6.1214-8.2804 6.8072-10.566 0.127-0.381-0.0508-0.508-0.4826-0.508-0.3556 0-0.4064 0.1016-0.5334 0.4318-1.143 2.7432-3.6068 8.89-5.1308 8.89-0.381 0-1.0668-0.3556-1.0668-1.8034 0-4.2418 2.5908-7.62 2.5908-12.649 0-1.2954-0.254-3.2258-2.0574-3.2258-2.3876 0-5.2324 3.5814-6.4516 6.1976 0.4064-1.651 1.2954-4.7752 1.2954-6.6802 0-1.7526-0.7366-2.921-1.8542-2.921-3.048 0-6.731 9.4742-7.8994 11.963 0.5334-2.1336 2.3368-8.4328 2.3368-10.084 0-0.889-0.4826-1.6764-1.0414-1.6764-0.7874 0-1.651 1.651-2.3622 4.572-0.4318 1.7018-1.1684 5.4102-1.651 8.382-0.4064 2.5146-0.6604 3.683-0.6604 4.8006 0 0.6858 0.3302 0.7874 0.7874 0.7874 0.5588 0 0.9652-0.1524 1.3462-0.508 1.0414-0.9906 1.1176-2.921 1.651-4.4704 1.0668-3.0734 5.5118-11.125 6.5024-11.125 0.2286 0 0.2286 0.4318 0.2286 0.508 0 2.9464-2.2352 8.3312-2.2352 11.938 0 0 0 0.7366 0.635 0.7366 0.2794 0 0.635-0.127 0.9398-0.3556 0.6096-0.4572 0.7366-1.0668 1.0922-1.9558 1.4732-3.81 5.08-8.2296 6.477-8.2296 0.4826 0 0.4572 0.4318 0.4572 0.8128z"/>
   <path d="m74.831 72.401c2.5146 0 5.461-3.048 5.461-5.0546 0-0.0762 0-0.127-0.0254-0.2032-0.127-0.1524-0.2794-0.254-0.4826-0.254-0.6604 1.0414-2.7686 4.064-4.1656 4.064-0.7874 0-1.1176-0.9906-1.1176-1.651v-0.127c1.778-0.1016 3.4544-2.3368 3.4544-4.0386 0-0.9906-0.5334-1.5494-1.5494-1.5494-2.7432 0-4.1656 3.4798-4.1656 5.7912 0 1.27 1.0414 3.0226 2.5908 3.0226zm1.8542-6.985c0 0.7112-1.2954 2.6924-2.0828 2.7432 0.0508-0.6858 0.9398-3.302 1.8034-3.302 0.2794 0 0.2794 0.381 0.2794 0.5588z"/>
   <path d="m81.714 62.114c-2.032 0-2.6416 6.9088-2.6416 8.509 0 0.635 0.0508 1.778 0.9144 1.778 1.4224 0 2.1844-1.3208 2.5654-2.5146 0.3048-0.9906 1.9558-6.5024 2.794-6.604 0.2286 0.3556 0.2286 1.143 0.2286 1.5748 0 1.6002-0.1524 3.175-0.1524 4.7752 0 0.5842-0.0254 1.8288 0.8382 1.8288 1.27 0 3.4036-6.8834 4.5212-7.0612 0.127 0.3302 0.1524 0.6604 0.1524 0.9906 0 1.905-0.5334 3.7338-0.5334 5.6388 0 0.8382 0.1016 2.4638 1.27 2.4638 1.0922 0 4.699-5.207 4.8514-6.35-0.1016-0.1524-0.3048-0.254-0.4826-0.254-0.3556 0-2.9972 4.2164-3.683 4.318-0.0762-0.0508-0.1016-0.1524-0.1016-0.2032 0-0.6858 0.2794-1.4732 0.4318-2.159 0.3048-1.3716 0.6096-2.794 0.6096-4.2164 0-0.9144-0.4572-2.2606-1.5748-2.2606-1.9812 0-3.6322 3.5052-4.3688 5.0292 0.0254-1.0414 0.2032-2.0828 0.2032-3.1496 0-1.016-0.1016-2.9972-1.524-2.9972-2.1082 0-3.8862 5.2578-4.572 6.9088 0.1524-1.6764 0.9144-3.2766 0.9144-4.9784 0-0.508 0.0254-1.0668-0.6604-1.0668z"/>
   <path d="m97.64 74.255c1.905 0 3.556-1.9558 4.2926-4.3434 1.5494-0.1778 3.683-1.7272 3.683-2.6924 0-0.2286-0.127-0.4572-0.3048-0.508-0.7874 0.635-2.159 1.397-3.0226 1.6256 0.0508-0.3302 0.0508-0.6604 0.0508-0.9906 0-2.5146-1.3462-4.7752-2.8702-4.7752-1.2446 0-2.6416 1.4986-2.6416 2.8194v0.1778c-1.2446 1.016-1.9558 2.6924-1.9558 4.572 0 2.3876 1.1684 4.1148 2.7686 4.1148zm3.1496-6.1976c-1.0922-0.6096-2.3114-1.8796-2.3114-2.6416 0-0.4572 0.4826-0.9906 0.9398-0.9906 0.7366 0 1.397 1.4478 1.397 3.048 0 0.2032 0 0.381-0.0254 0.5842zm-0.2794 1.651c-0.4318 1.6256-1.2446 3.0226-2.2098 3.0226-0.6858 0-1.3208-1.1176-1.3208-2.3368 0-0.9652 0.4064-2.1844 0.8382-2.7432 0.7112 0.889 1.7272 1.6764 2.6924 2.0574z"/>
   <path d="m107.24 75.525c1.8034 0 6.4262-6.6548 6.5532-8.382 0.0254-0.2794-0.2794-0.254-0.4826-0.254-0.4572 0.7112-4.1402 6.2738-4.9276 6.2738-0.1778 0-0.1524-0.254-0.1524-0.381 0.127-1.4224 1.27-2.8702 1.397-4.3688 0.1524-1.5748-1.0922-1.6002-2.3622-2.032 0.6096-0.5588 1.1684-1.651 1.2446-2.4384 0.0762-0.9398-0.4826-2.3876-1.5748-2.3876-1.8034 0-2.4638 1.8288-2.5908 3.302-0.2032 2.54 1.6764 2.7178 3.5306 3.302-0.0254 0.4318-0.635 1.7018-0.8382 2.2098-0.4064 1.0922-0.8128 2.2352-0.9144 3.3782-0.0762 0.9144 0.0254 1.778 1.1176 1.778zm-0.2794-11.43c-0.0508 0.508-0.3048 1.6764-0.6858 2.032-0.381-0.2032-0.4318-0.8636-0.4064-1.27 0.0508-0.3302 0.2032-1.7272 0.7112-1.7272 0.3556 0 0.4064 0.7112 0.381 0.9652z"/>
   <path d="m115.32 62.571c0.8636 0 1.2954-0.9906 1.2954-1.7272 0-0.508-0.1778-1.1684-0.8128-1.1684-1.0414 0-1.4478 0.9144-1.4478 1.7018 0 0.5334 0.381 1.1938 0.9652 1.1938zm-0.9906 10.16c1.5494 0 4.6228-4.191 4.6228-5.461 0-0.2286-0.0508-0.381-0.3048-0.381-0.9398 0-2.9464 4.064-3.6576 4.064-0.381 0-0.4064-0.5842-0.4064-0.8382 0-3.0988 1.2192-4.2418 1.2192-5.3594 0-0.6604-0.381-0.8128-0.9906-0.8128-1.3208 0-2.1844 3.302-2.1844 5.461 0 1.0668 0.254 3.3274 1.7018 3.3274z"/>
   <path d="m120.04 72.401c2.5146 0 5.461-3.048 5.461-5.0546 0-0.0762 0-0.127-0.0254-0.2032-0.127-0.1524-0.2794-0.254-0.4826-0.254-0.6604 1.0414-2.7686 4.064-4.1656 4.064-0.7874 0-1.1176-0.9906-1.1176-1.651v-0.127c1.778-0.1016 3.4544-2.3368 3.4544-4.0386 0-0.9906-0.5334-1.5494-1.5494-1.5494-2.7432 0-4.1656 3.4798-4.1656 5.7912 0 1.27 1.0414 3.0226 2.5908 3.0226zm1.8542-6.985c0 0.7112-1.2954 2.6924-2.0828 2.7432 0.0508-0.6858 0.9398-3.302 1.8034-3.302 0.2794 0 0.2794 0.381 0.2794 0.5588z"/>
   <path d="m127.08 70.648c-1.7272 1.3208-3.048 2.8448-3.048 4.191 0 1.4986 1.143 2.5908 2.6162 2.5908 2.286 0 4.7752-2.1844 4.7752-4.2418 0-1.397-0.5588-2.3368-1.3208-3.048 1.7018-1.0414 3.429-1.9812 4.2672-2.7432 0.0508-0.254-0.127-0.5334-0.381-0.4826-0.9398 0.2286-2.9718 1.143-4.953 2.3876-1.2192-0.8382-2.4384-1.397-2.4384-2.4892 0-1.0668 1.0922-3.0734 2.3114-3.0734 0.5842 0 0.9906 0.3556 0.9906 1.0668 0 0.5842-0.3048 1.1176-0.3048 1.7018 0 0.3302 0.2032 0.5842 0.5334 0.5842 0.9144 0 1.4478-1.1684 1.4478-1.9304 0-1.7526-0.9398-2.6924-2.6924-2.6924-2.5908 0-4.3942 2.1336-4.3942 4.6482 0 1.9558 1.2954 2.8194 2.5908 3.5306zm-1.2446 3.81c0-1.0414 1.0668-2.1082 2.4638-3.1242 0.762 0.4826 1.3462 1.0414 1.3462 1.9812s-1.3462 2.3876-2.5146 2.3876c-0.762 0-1.2954-0.5842-1.2954-1.2446z"/>
  </g>
 </g>
</svg>
