<?xml version="1.0" encoding="UTF-8"?>
<!-- Created with Inkscape (http://www.inkscape.org/) -->
<svg width="122.01mm" height="138.24mm" version="1.1" viewBox="0 0 122.01 138.24" xmlns="http://www.w3.org/2000/svg">
 <g transform="translate(26.616 -58.875)" fill="#000">
  <g>
   <path d="m51.254181 74.243571 0 0c2.706797 -0.005 5.153821 1.81615 5.845121 4.572847l17.051155 67.988095c0.81939 3.2672 -1.146603 6.57524 -4.407999 7.41764l-61.0923953 15.7794c-3.2613967 0.84241 -6.5470763 -1.1097 -7.3664754 -4.377L-15.766533 97.636975c-0.819389 -3.267197 1.146603 -6.575236 4.408 -7.417635L49.733345 74.439425c0.509589 -0.13161 1.019638 -0.195034 1.520836 -0.195854zm15.350485 2.008146c3.367796 -0.0678 6.11418 2.589163 6.15828 5.957259L73.094193 107.548 65.448665 76.274972Zm14.822867 3.047359c2.907929 0.770882 4.836378 3.580945 4.417302 6.648173L82.15152 112.98074Zm-91.0822954 80.502064 0.038241 1.7787 -0.9885706 7.42591c-0.22839 1.71569 0.26598 3.35399 1.2474695 4.61418l0.1131714 5.2679c0.0718 3.3371 2.5942192 6.01804 5.817216 6.38514l1.468128 6.0017c1.002599 4.1007 5.1106282 6.59451 9.2113241 5.59191l50.981901 -12.46384 16.200562 2.15646c3.117328 0.41495 5.978411 -1.55785 6.773891 -4.51119 1.144559 -0.96672 1.947621 -2.32515 2.21713 -3.85908 3.598412 -1.3212 5.683606 -5.13572 4.750831 -8.95083L84.808207 155.4598 95.317643 76.508549c0.451669 -3.393097 -1.91614 -6.488029 -5.309237 -6.939628L79.945454 68.228951C78.717891 66.60206 76.757177 65.56782 74.555086 65.615157v0l-12.270569 0.263549 -0.542086 -0.07235c-1.470616 -1.465486 -3.507743 -2.301111 -5.655469 -2.217435 -0.506729 0.0199 -1.01909 0.09021 -1.531689 0.21549L51.78645 64.480343 10.278389 58.955098c-0.21206 -0.0282 -0.4233399 -0.04559 -0.6325197 -0.05219v0c-3.1374969 -0.0996 -5.8842257 2.180433 -6.3076253 5.36143l-0.3844727 2.888713 -8.018632 0.172599c-3.6424963 0.0783 -6.5120153 3.07379 -6.4337153 6.716386l0.126607 5.880261 -9.404594 2.299085c-4.100696 1.002599 -6.595023 5.110628 -5.592424 9.211324zm77.1053714 2.79983c0.729189 0.0217 1.251121 0.47534 1.52032 1.33738 0.15608 0.49972 0.04569 1.3754 -0.553971 1.5627 -0.21656 0.0676 -0.402109 -0.0573 -0.469739 -0.27389 -0.11964 -0.38313 -0.02871 -0.79567 -0.148311 -1.17873 -0.14568 -0.46644 -0.485025 -0.61626 -0.868164 -0.49662 -0.799569 0.24972 -1.104701 1.78956 -0.886251 2.48926 0.22368 0.7163 1.137716 0.8327 2.108915 1.13275 1.044399 -1.222 2.189505 -2.23781 2.759005 -2.58021 0.15618 -0.0853 0.330106 0.0618 0.348816 0.23875 -0.39365 0.67141 -1.333757 1.6412 -2.236556 2.6727 0.645389 0.31036 1.204248 0.81238 1.490348 1.72858 0.42138 1.3493 -0.763732 3.29178 -2.262911 3.75998 -0.966149 0.3017 -1.939475 -0.17994 -2.246374 -1.16272 -0.2757 -0.88286 0.278289 -2.15303 1.140499 -3.37292 -0.60463 -0.12218 -1.219756 -0.28278 -1.700155 -0.67645 -0.2689 1.3131 -1.315184 2.87927 -2.554883 3.26647 -0.843509 0.26341 -1.703701 -0.33676 -2.120801 -1.02475 -0.384199 1.1077 -0.993315 2.23494 -1.559594 2.41174 -0.85624 0.26739 -1.449242 -0.86505 -1.718242 -1.60403 -0.475989 1.979 -1.533263 4.63087 -2.356962 4.88807 -0.716279 0.22368 -0.959801 -0.32212 -1.097091 -0.93741 -0.167479 -0.77041 -0.13536 -1.60294 -0.0925 -2.40244 0.0292 -0.37478 0.168891 -1.33269 0.09715 -1.62109 -0.587719 -0.003 -1.16218 0.049 -1.654679 -0.0388 0.0555 0.67879 -0.959274 1.99593 -1.884123 2.40553 0.006 1.7167 -0.676632 3.33733 -1.92598 3.72742 -1.049399 0.32774 -2.169237 -0.56534 -2.658236 -2.13113 -0.41357 1.3276 -1.004417 2.72669 -1.412317 2.85409 -0.766259 0.23932 -1.165686 -0.80574 -1.337386 -1.35547 -0.39015 -1.2493 -0.414959 -2.55823 -0.805119 -3.80752 -0.0676 -0.21656 -0.151904 -0.42805 -0.302824 -0.61857 -0.696549 0.34549 -0.685851 5.29657 -1.51877 5.55677 -0.566369 0.17687 -0.804852 -0.64421 -0.924491 -1.02733 -0.32774 -1.0494 -0.550253 -2.11372 -0.877983 -3.16312 -0.0884 -0.28319 -0.249573 -0.79961 -0.472323 -0.98598 -0.528899 0.23828 -0.482547 4.19147 -0.479557 4.90357 -0.005 0.86093 -0.235048 1.88325 -1.167887 2.17455 -0.56636 0.17688 -0.833696 -0.56282 -0.963766 -0.97927 -0.0318 -0.10179 -0.07332 -0.26227 -0.115238 -0.42478 -0.4454 1.0856 -1.310586 2.1501 -2.302185 2.4598 -0.51324 0.16028 -1.032809 0 -1.455209 -0.30438 -0.155169 2.2836 -0.657871 5.02306 -2.237589 5.51646 -0.899529 0.28091 -2.160157 -0.18469 -2.680457 -1.85053 -0.894739 -2.8652 -0.07231 -6.32123 -0.930692 -9.06973 -0.078 -0.24985 -0.150149 -0.5386 -0.466638 -0.43977 -0.916169 0.28612 -2.376318 3.92323 -2.562118 6.72362 -0.0511 0.65585 -0.01 1.08167 -0.315743 1.50637 -0.15307 0.21236 -0.360386 0.36859 -0.543636 0.42582 -0.41643 0.13005 -0.56689 -0.35295 -0.56689 -0.35295 -0.73872 -2.3654 -0.375829 -6.35454 -0.979269 -8.28684 -0.0156 -0.05 -0.104328 -0.33308 -0.254248 -0.28628 -0.649649 0.20288 -1.915208 6.39328 -1.985408 8.62738 -0.0325 1.12539 0.312658 2.40708 -0.167432 3.27008 -0.17703 0.31126 -0.412284 0.49432 -0.778764 0.60875 -0.29985 0.0936 -0.537008 0.0947 -0.677478 -0.35502 -0.22889 -0.73294 -0.301884 -1.55112 -0.550354 -3.28352 -0.29216 -2.0478 -0.56871 -4.6308 -0.63407 -5.8353 -0.13184 -2.0613 0.0965 -3.32066 0.612883 -3.48196 0.366479 -0.11443 0.844204 0.30269 1.026294 0.88573 0.338129 1.0828 0.445604 5.58358 0.532784 7.09208 0.256429 -1.8718 0.731604 -8.83931 2.730582 -9.46351 0.73292 -0.2289 1.45536 0.38645 1.81436 1.53583 0.39016 1.24929 0.446695 3.48023 0.518315 4.64622 0.263759 -1.96549 1.395677 -4.89671 2.961576 -5.38571 1.182699 -0.36936 1.744913 0.84444 2.010213 1.69395 1.029999 3.2982 0.02282 6.04454 0.891419 8.82633 0.296519 0.94948 0.819325 1.04231 1.069185 0.96429 0.773489 -0.24154 1.158111 -2.98972 1.381311 -5.17281 -0.0313 -0.0689 -0.05983 -0.13793 -0.08113 -0.20619 -0.47339 -1.5158 -0.253346 -4.0896 1.545642 -4.6514 0.666319 -0.20807 1.130869 0.0495 1.333769 0.69918 0.348539 1.1161 -0.293393 2.92507 -1.438672 3.35587l0.02636 0.0832c0.13525 0.43309 0.554386 1.01551 1.070736 0.85421 0.763079 -0.23831 1.415579 -1.94325 1.740979 -2.98225 -0.28908 -1.70619 -0.426935 -3.79061 0.446484 -4.06331 0.44976 -0.14047 0.54758 0.23114 0.65164 0.5643 0.348539 1.1161 0.176739 2.32139 0.420129 3.45199 0.11163 -1.2232 0.200737 -5.03515 1.583366 -5.46685 0.932839 -0.29133 1.405138 0.98685 1.613338 1.65313 0.21849 0.69963 0.314957 1.41916 0.511597 2.10736 0.17094 -1.1504 0.536278 -3.78732 1.835547 -4.19302 0.732949 -0.22889 1.308216 0.56047 1.495516 1.16013 0.291329 0.93282 0.382517 1.92785 0.463537 2.88975 0.0405 0.48099 0.01879 1.0546 0.159164 1.5043 0.0103 0.0333 0.04811 0.0949 0.10852 0.11266 0.31488 -0.15203 0.863796 -1.96146 1.227316 -2.94866 0.0493 -0.61119 0.2311 -1.18302 0.54932 -1.66502l-0.03617 -0.11627c-0.27051 -0.86619 0.338719 -2.13513 1.154968 -2.39003 0.999459 -0.31213 2.345291 0.89441 2.86029 2.54351 0.0676 0.21654 0.135209 0.43295 0.169499 0.65991 0.45357 -0.2853 1.077398 -0.91616 1.485697 -1.45624 -0.390679 -0.19299 -0.692683 -0.55693 -0.849043 -1.24696 -0.21844 -0.99216 -0.160043 -2.32656 1.022676 -2.69596 0.71628 -0.22371 1.379371 0.61089 1.521871 1.24282 0.11128 0.532 -0.03139 1.36275 -0.316776 1.85415 0.921329 0.023 1.742755 -0.21495 1.965254 0.84905 0.22365 1.0088 -0.229714 2.19243 -0.0217 3.15123 0.0259 0.0833 0.0617 0.255 0.178284 0.21859 0.43505 -0.13586 1.371183 -3.16169 1.759583 -4.48448 -0.18439 -1.2796 -0.09003 -2.67338 0.566373 -2.87838 0.39978 -0.12483 0.680721 -0.10288 0.815971 0.33021 0.22889 0.73295 -0.336486 1.73243 0.298173 3.76463 0.052 0.16658 0.188376 0.54415 0.438216 0.46612 0.33901 -0.10586 0.68785 -1.75158 1.089339 -2.72128 -0.081 -1.4152 0.366626 -3.03507 1.749764 -3.46697 0.66633 -0.20809 1.130353 0.049 1.333252 0.69866 0.34853 1.1161 -0.292876 2.92507 -1.438155 3.35587l0.02584 0.0837c0.13525 0.4331 0.554903 1.01491 1.071253 0.85369 0.756789 -0.23633 1.404094 -1.91439 1.732194 -2.95589 -0.0435 -0.0968 -0.08421 -0.19765 -0.118856 -0.30851 -0.515009 -1.6491 0.23051 -3.418 1.929598 -3.94859 0.28736 -0.0897 0.553781 -0.13021 0.796851 -0.12299zm-9.799402 0.94464c0.32864 -0.007 0.533211 0.33377 0.624251 0.62529 0.15086 0.48308 0.0703 1.22105 -0.496094 1.39785 -0.383119 0.11964 -0.768216 -0.23569 -0.877465 -0.5855 -0.16126 -0.51639 -0.082 -1.19902 0.600996 -1.41231 0.0521 -0.0161 0.101372 -0.0242 0.148312 -0.0253zm4.791439 2.22364v0c-0.0199 -0.003 -0.04118 0 -0.06408 0.008 -0.56636 0.17688 -0.613579 2.07463 -0.506429 2.53473 0.505989 -0.1946 0.949765 -1.75931 0.804085 -2.22571 -0.0319 -0.10205 -0.09541 -0.3062 -0.233577 -0.31729zm-10.193693 1.9513c-0.0273 -0.006 -0.05565 -0.005 -0.08475 0.004 -0.333159 0.10403 -0.146974 1.05147 -0.112654 1.27847 0.0666 0.27173 0.235093 0.69461 0.526582 0.74983 0.17703 -0.31123 0.10429 -1.1297 0.03359 -1.4733 -0.0309 -0.15031 -0.171799 -0.51829 -0.362768 -0.55914zm15.837793 0.9369c-0.70811 0.95242 -1.188891 1.87043 -0.975651 2.55333 0.135259 0.43309 0.604625 0.70695 1.104325 0.55087 0.766259 -0.23929 1.352536 -1.46419 1.160136 -2.08049 -0.19249 -0.61632 -0.690261 -0.86327 -1.28881 -1.02371zm-20.261296 1.36684c-0.032 0.003 -0.06282 0.008 -0.09302 0.017 -0.299859 0.0936 -0.507051 0.54198 -0.413411 0.84181 0.15605 0.49975 1.215623 1.08326 2.056722 1.25935 -0.0249 -0.13847 -0.0617 -0.25532 -0.103353 -0.3886 -0.30723 -0.98385 -0.967044 -1.76061 -1.446423 -1.72961zm-0.482141 2.46031c-0.16873 0.45492 -0.185834 1.33743 0.01188 1.97043 0.24972 0.79956 0.895418 1.40285 1.345138 1.26245 0.632989 -0.19767 0.879693 -1.28039 0.829924 -2.43499 -0.71101 -0.0522 -1.537931 -0.36051 -2.18643 -0.79789zm-14.55105 2.54507c-0.01966 -0.003 -0.04084 0 -0.06356 0.008 -0.566359 0.17687 -0.613559 2.07463 -0.506429 2.53473 0.50599 -0.1946 0.949735 -1.75879 0.804085 -2.22519 -0.03186 -0.10191 -0.09572 -0.30577 -0.233577 -0.31729z"/>
  </g>
  <g>
   <path d="m7.9119 100.01s8.7534 16.126 9.9538 15.783c1.2869-0.63526 13.728-21.418 14.393-24.033-10.13-2.0801-19.645 3.4595-24.346 8.25z"/>
   <path d="m37.355 92.365s-9.9388 15.423-9.0612 16.311c1.1753 0.82357 25.38 1.7526 27.992 1.0794-3.0414-9.8838-12.471-15.568-18.931-17.391z"/>
   <path d="m58.25 114.09s-18.337-0.64045-18.651 0.56809c-0.10566 1.4313 11.489 22.698 13.405 24.597 6.9328-7.673 6.9879-18.683 5.2458-25.165z"/>
   <path d="m49.944 142.52s-8.9096-16.04-10.107-15.685c-1.2807 0.64772-13.519 21.55-14.159 24.171 10.15 1.9816 19.61-3.6502 24.265-8.4862z"/>
   <path d="m20.937 149.92s9.3079-15.812 8.3951-16.664c-1.2076-0.77543-25.43-0.72621-28.013 0.0519 3.4381 9.7529 13.089 15.052 19.618 16.612z"/>
   <path d="m-0.18272 128.6s18.336 0.67861 18.652-0.52928c0.10863-1.431-11.442-22.722-13.354-24.625-6.9487 7.6586-7.0267 18.669-5.2982 25.154z"/>
  </g>
 </g>
</svg>
