<?xml version="1.0" encoding="UTF-8" standalone="no"?>
<!-- Created with Inkscape (http://www.inkscape.org/) -->

<svg
   id="svg2"
   sodipodi:docname="app.svg"
   viewBox="0 0 650 650"
   version="1.1"
   inkscape:version="1.1 (c68e22c387, 2021-05-23)"
   inkscape:export-filename="C:\Users\varun\Downloads\app.png"
   inkscape:export-xdpi="44.700001"
   inkscape:export-ydpi="44.700001"
   width="650"
   height="650"
   xmlns:inkscape="http://www.inkscape.org/namespaces/inkscape"
   xmlns:sodipodi="http://sodipodi.sourceforge.net/DTD/sodipodi-0.dtd"
   xmlns="http://www.w3.org/2000/svg"
   xmlns:svg="http://www.w3.org/2000/svg"
   xmlns:rdf="http://www.w3.org/1999/02/22-rdf-syntax-ns#"
   xmlns:cc="http://creativecommons.org/ns#"
   xmlns:dc="http://purl.org/dc/elements/1.1/">
  <defs
     id="defs16" />
  <title
     id="title3629">Camera</title>
  <sodipodi:namedview
     id="base"
     bordercolor="#666666"
     inkscape:pageshadow="2"
     inkscape:window-y="-9"
     pagecolor="#ffffff"
     inkscape:window-height="991"
     inkscape:window-maximized="1"
     inkscape:zoom="0.35355339"
     inkscape:window-x="-9"
     showgrid="false"
     borderopacity="1.0"
     inkscape:current-layer="layer1"
     inkscape:cx="89.095455"
     inkscape:cy="148.49242"
     inkscape:window-width="1920"
     inkscape:pageopacity="0.0"
     inkscape:document-units="px"
     inkscape:pagecheckerboard="0"
     fit-margin-top="0"
     fit-margin-left="0"
     fit-margin-right="0"
     fit-margin-bottom="0" />
  <g
     id="layer1"
     inkscape:label="bg"
     inkscape:groupmode="layer"
     transform="translate(-151.94602,-318.77312)">
    <path
       style="fill:#ffffff;fill-opacity:1;stroke-width:2.13333"
       d="m 197.73165,860.67627 c -18.61338,-6.82684 -36.75782,-26.01129 -41.74653,-44.13937 -1.829,-6.64627 -2.33554,-48.09549 -1.88392,-154.15716 l 0.6177,-145.06666 4.93339,-10.01572 c 16.12451,-32.73596 27.47173,-36.77498 105.46662,-37.5407 l 63.46666,-0.62308 0.0128,-8.97692 c 0.0286,-21.53158 14.50791,-42.38798 33.30228,-47.9693 14.35532,-4.26306 208.49298,-3.66246 220.80965,0.68312 18.77632,6.62468 31.61107,24.94489 31.69598,45.2426 l 0.0459,11.2 h 65.04378 c 84.02378,0 95.74352,3.94726 112.45,37.8737 l 7.03955,14.29547 0.63814,134.29886 c 0.8464,178.12549 -1.26265,188.01876 -43.44674,203.80184 -15.31511,5.73014 -542.98637,6.76314 -558.44531,1.09332 z M 510.98557,774.6975 c 88.64983,-31.88148 102.45316,-145.666 23.87294,-196.79099 -102.54562,-66.7171 -220.77781,66.53341 -142.78216,160.91892 29.81079,36.0752 77.95716,50.59979 118.90922,35.87207 z m -60.78933,-42.43819 c -25.88523,-9.13355 -42.15328,-37.1623 -39.9792,-68.88145 5.67091,-82.737 128.4049,-82.50709 133.37154,0.24984 3.13721,52.27458 -43.21406,86.33693 -93.39234,68.63161 z"
       id="path3940" />
    <path
       style="fill:#000000;stroke-width:2.13333"
       id="path3510"
       d="" />
    <path
       style="fill:#000000;stroke-width:2.13333"
       id="path3490"
       d="" />
    <path
       style="fill:#000000;stroke-width:2.13333"
       id="path3452"
       d="" />
  </g>
  <g
     id="layer2"
     inkscape:label="camera"
     inkscape:groupmode="layer"
     transform="translate(-151.94602,-318.77312)" />
  <metadata
     id="metadata13">
    <rdf:RDF>
      <cc:Work
         rdf:about="">
        <dc:title>Camera</dc:title>
      </cc:Work>
    </rdf:RDF>
  </metadata>
</svg>
