<svg width="32" height="32" version="1.0" viewBox="0 0 32 32" xmlns="http://www.w3.org/2000/svg"><path d="m0.6875 2c-0.395 0.0765-0.6946 0.4668-0.6875 0.875v22.25c0 0.46 0.424 0.87695 0.875 0.87695h1.125v-4.002-17.125-0.875h0.6875 23.312v0.0019531h2v-0.78125c-1e-3 -0.6731-0.52925-1.2226-1.0312-1.2188l-26.281-0.0019531zm4 4c-0.395 0.0765-0.6946 0.4668-0.6875 0.875v22.25c0 0.46 0.424 0.87695 0.875 0.87695h26.25c0.4511-1.2e-5 0.87498-0.41692 0.875-0.875v-21.906c-1e-3 -0.6731-0.52925-1.2226-1.0312-1.2188l-26.281-0.0019531zm1.3125 2h24v10l-2-2-6 8-6-6-8 8h-2v-18zm5 2c-1.6569 0-3 1.3431-3 3s1.3431 3 3 3 3-1.3431 3-3-1.3431-3-3-3z" color="#000000" style="text-indent:0;text-transform:none"/></svg>
